PathFileType	4	(X/Y/Z)	35_2_17_p0_0-391_filt_butterworth.trc
DataRate	CameraRate	NumFrames	NumMarkers	Units	OrigDataRate	OrigDataStartFrame	OrigNumFrames
59.0	59.0	7	27	m	59.0	293	391
Frame#	Time	RHip			RKnee			RAnkle			RBigToe			RSmallToe			RHeel			LHip			LKnee			LAnkle			LBigToe			LSmallToe			LHeel			Neck			Head			Nose			RShoulder			RElbow			RWrist			RThumb			RIndex			RPinky			LShoulder			LElbow			LWrist			LThumb			LIndex			LPinky			
		X1	Y1	Z1	X2	Y2	Z2	X3	Y3	Z3	X4	Y4	Z4	X5	Y5	Z5	X6	Y6	Z6	X7	Y7	Z7	X8	Y8	Z8	X9	Y9	Z9	X10	Y10	Z10	X11	Y11	Z11	X12	Y12	Z12	X13	Y13	Z13	X14	Y14	Z14	X15	Y15	Z15	X16	Y16	Z16	X17	Y17	Z17	X18	Y18	Z18	X19	Y19	Z19	X20	Y20	Z20	X21	Y21	Z21	X22	Y22	Z22	X23	Y23	Z23	X24	Y24	Z24	X25	Y25	Z25	X26	Y26	Z26	X27	Y27	Z27	
293	4.966101694915254	0.376204010132001	0.6302584220471403	0.46427829555996675	0.3682261795801044	0.8700713576911323	0.8506589482825451	0.38106874426338583	1.1201107184933623	1.1953199248333897	0.3510798862872548	0.9817667789583884	1.2953322163374033	0.41923949433373925	0.9764354621278695	1.287091810558148	0.35722263868628557	1.2470531076450284	1.221910395948034	0.1572001204650832	0.6922289658292728	0.44728780997372736	0.16881494445546377	0.9015269860649939	0.816824232337572	0.18238599369025726	1.118982704383762	1.1822851958717941	0.19524587033747456	0.93764311696628	1.2805563819999444	0.14132149016496912	0.9934301155772278	1.2721389146218178	0.19881215926842666	1.211764986269642	1.2251989132734056	0.2539219135633942	0.31277610943962514	0.03468093092192141	0.21297236892629667	0.06866620058207343	-0.12524380866425017	0.21970912719860985	0.1191721951793185	0.01797268062793125	0.42857893587532536	0.32257185757069934	0.06990591055342853	0.382636188317932	0.32449373478467924	0.3556054891149308	0.22676987039397647	0.23227387341496258	0.16965060336628793	0.1975846803262897	0.20643335039745586	0.054944279005021746	0.18278994388361844	0.16801401965826884	0.06516966984802693	0.16039350681656633	0.1740807248755889	0.11561811005422358	0.11132830797006807	0.4393621252458039	0.03571695672234093	0.05307706972141422	0.6283340125362036	0.2520185936345677	0.09355235926537535	0.4233516560314426	0.2620703877099466	0.11860076586589427	0.28431090847860296	0.23490228282434117	0.10342780870702528	0.2667747650648867	0.23794257412450734	0.10812727733870423	0.29241427767927297	0.286230680560052
294	4.983050847457627	0.3762075991881668	0.6302947931086553	0.4643343902422419	0.36865613483104065	0.8715435601815558	0.8505503930692337	0.3798555387595741	1.120150470899928	1.1953066081822654	0.351126747628528	0.981929980632846	1.2953314807924077	0.41922259752855345	0.9765939259334364	1.28714829913482	0.35721917294426264	1.2471641837769498	1.2223232624323375	0.15723678255479676	0.6922917369201271	0.44730763565527765	0.16881320604589958	0.901448352778376	0.8168134263362848	0.18224990187033036	1.1179482486825247	1.1826927487299752	0.19522055573721842	0.9376418650766927	1.2805785989473872	0.14156918842283955	0.9928305999886485	1.2712476074277967	0.19889655037831824	1.2118817732508913	1.2251587203995167	0.2556364163505174	0.3151736246649811	0.03144858407503303	0.21306786964591534	0.06934114127595567	-0.12731267150564973	0.22051289826613896	0.11807268250659897	0.01616552813690371	0.4299067806564618	0.3238211509291707	0.06933227357691091	0.38383907986818966	0.3247518029138953	0.3555108393619693	0.22657977961272147	0.2316532502177877	0.16873942955668308	0.19337251700000493	0.2086192929547671	0.0511491782689849	0.1771790940520348	0.17317032137822364	0.05973865914196426	0.15667025137229762	0.1792761401830372	0.11358113833323595	0.11260286257111317	0.44396749318720896	0.03497560369746252	0.05324718505453551	0.6292833901261295	0.2521800424026706	0.09415297376504847	0.4266286848473703	0.2612629887410163	0.12136248124691768	0.2863517871457787	0.23546669802777473	0.10534147729374671	0.267207599016275	0.23835649011326057	0.10791842578505123	0.291805277216411	0.2860195460361664
295	5.0	0.37618155420746047	0.6303589114275983	0.46433793966869963	0.3694133988469989	0.8740627450319015	0.8505892333760599	0.37824254263926954	1.1185286293089973	1.195211623300248	0.3512755081387106	0.9823186715530943	1.2952932881254928	0.4193086212843284	0.9769509710640334	1.287054356349264	0.35719554760157657	1.2471351712047583	1.2231744766235142	0.15727689118279176	0.6924023848051566	0.4473324376649179	0.16883096628608737	0.9013899683671236	0.8167902316137651	0.18178830468031898	1.1160663254286065	1.1826603769283692	0.1952073639070982	0.9375680979114293	1.2805786110118924	0.14189486138546653	0.9920606768307331	1.2700992106614089	0.19907820128327441	1.2127227594375303	1.225285431081616	0.257202961436036	0.317142680993938	0.029128126430642654	0.21328103955372726	0.07145623868991235	-0.12958176989979492	0.2208145106017071	0.11695039758544107	0.014655082001837214	0.43095932708963874	0.32668872361101964	0.06818891353219045	0.384714471916067	0.3251141955441929	0.3553907847894279	0.22658939741921777	0.22949220446007845	0.16704340162171144	0.18990112581286725	0.21076527402555878	0.04815617578990654	0.17375152713672032	0.17527641240469483	0.05594521075077084	0.15954164689431202	0.1827745263394882	0.11627204401468517	0.11389317871720668	0.44860793191730713	0.03454178732673139	0.05292074565445949	0.6294337169731503	0.2523257620926856	0.09472068061958815	0.43121034085982124	0.26058949218589006	0.1225078346946524	0.2882027368889306	0.2352809654235002	0.10757652146690137	0.26663517210610066	0.23921237772852336	0.10815394541592575	0.29154530631183856	0.2860614664773136
296	5.016949152542373	0.3761094322152014	0.6302730165215973	0.4643412367979692	0.36980676082764785	0.8753664971362118	0.8506234728722214	0.37701524274514464	1.114276018266496	1.1949983495325345	0.3513476138490198	0.9823674415013499	1.2952039509662798	0.4194815232170901	0.9770427520154408	1.2869808392340985	0.357167915551961	1.2470635990193826	1.223973109434664	0.15728793234854538	0.6924425387004423	0.44737043175241975	0.16885486583073814	0.9013460129948856	0.8167746289994688	0.18142798619419453	1.11456605953281	1.1825433093120479	0.19521515445746174	0.9375140176854863	1.2805751925570052	0.14213644533360226	0.9914813347270451	1.2692461435395546	0.19932573119623237	1.21391182553538	1.2258299863314481	0.2582126316006649	0.3178831775141611	0.02784755759949331	0.21366259825160955	0.07430658922381256	-0.13142156549926431	0.22079992383668356	0.1168517485822294	0.012876521634930499	0.4314282437409409	0.33044155363880984	0.06678595532438462	0.38508843034843165	0.32507958023594297	0.355237976398958	0.22729581620890912	0.22499246225681602	0.16504814996750003	0.18951360352209903	0.2120716261948235	0.04654647705061666	0.17423488310488683	0.17249736756158907	0.05560642864466843	0.16402911274691875	0.18874206294343898	0.11903122748471046	0.11509507944024519	0.4529942602167755	0.033921539276176894	0.051800863581696076	0.6281199030323579	0.2524410837321627	0.09486098787130585	0.4392755764208417	0.2594987545154971	0.12273142420673619	0.29011969695849865	0.233988576444182	0.1102322461545954	0.2640827616210815	0.2404954532631402	0.10904625686443738	0.2929360399107489	0.2862778274793716
297	5.033898305084746	0.37601925779327533	0.629992770289992	0.4643673397754371	0.36932022197014114	0.8738951032532801	0.8504127651395796	0.3765368780782641	1.10864707762053	1.1947159207462705	0.3509519508854239	0.9808532479188965	1.2950002339698203	0.41955782503326294	0.9756253291314585	1.2869313343408604	0.357138033418469	1.2470428828349716	1.2239732322847938	0.15721925341389176	0.6921492187633094	0.4473508732333423	0.16886007580016474	0.9012760061802616	0.8167717986972157	0.18135317240736284	1.1142259215012957	1.1824900558744	0.19525768104422037	0.9376427111877477	1.280604421081959	0.1422249041235844	0.9912509561551741	1.268924062032246	0.1995069341889113	1.2146323902609453	1.2268394649564476	0.25893274017279433	0.3176886571149779	0.026729354589394627	0.21418967321165774	0.07654514149973896	-0.1329760584686413	0.22075406420756244	0.11725792152902542	0.011077683354090881	0.43148663100469475	0.33328814816971786	0.06577406705706662	0.38540355458045306	0.32368762817958124	0.3549686694034155	0.22933159431668845	0.2185774084824963	0.1638370043924804	0.19258131890363306	0.21287915564070092	0.046529154574836126	0.1777368994751403	0.16328339295507338	0.059348534405107	0.1668379661274225	0.1954087158803446	0.12031581920556784	0.11588099514475624	0.4559213601930888	0.033271384043651146	0.05026007778547451	0.6260114842820926	0.2525547857230799	0.0946669919247844	0.4488711755114978	0.2576549615756156	0.12282446262836866	0.29100439350815543	0.2328234190274436	0.1130527919419103	0.25978180168600906	0.24178569276536016	0.1104556551714789	0.29685918509610637	0.28644456318109796
298	5.050847457627119	0.3760509027872126	0.6299456915175174	0.46435974275568154	0.36785930689455987	0.8694193414822191	0.8499286628682636	0.3765466431024492	1.1044350391128195	1.1944815429835849	0.3497938253052422	0.976831517585026	1.29461771949794	0.4191435945383031	0.9716473813203886	1.2867873744880103	0.3571050246409691	1.2470716945554796	1.2231667806691495	0.15705122965686735	0.6913505918078245	0.44712403655870225	0.16884643716472233	0.9011829815911334	0.8167862301267421	0.18172968442175425	1.1159306388614956	1.1825472017337164	0.19532013921823188	0.9379468796049187	1.2806511925836102	0.14221772274926123	0.991248137745947	1.2689320940923976	0.19952611129506098	1.2144229001223998	1.2276748813951386	0.25952603797408175	0.3171760602160142	0.025396089967972338	0.21473352014021158	0.0780340446490544	-0.13472761238086386	0.2207841873598637	0.11713678370187439	0.00945423465221695	0.43139623550776457	0.3344025751935515	0.06544612315989809	0.38613635314699407	0.32035324040319957	0.35446816031069783	0.2330031682988244	0.21166070904426776	0.16444611362762843	0.19697966874641828	0.21388127680238075	0.04855127371833527	0.18203353311667533	0.1494189387468825	0.06593577188721375	0.16943567968340642	0.1935047819738303	0.12039453102731965	0.11610922013714906	0.45673945779742575	0.032991188750318964	0.04906995760798914	0.6243406998460793	0.2527005396423774	0.09456597856400892	0.4543015509247543	0.25541499799823986	0.12345397210190993	0.28902001041664893	0.23251103546668195	0.11572902870710296	0.25512466814980067	0.24183717105374247	0.11180426291862272	0.3020301828004792	0.28612980735212323
299	5.067796610169491	0.376499549818869	0.6311970762996519	0.46415376967414385	0.36594317058894116	0.8635573606687479	0.8492158210818738	0.3766777250006417	1.1028735466436976	1.194353099742415	0.34821865071595004	0.9714649601159802	1.29413595240259	0.4179437615575887	0.966182815443646	1.286447523329202	0.3570786270082967	1.2470717494779227	1.22229424363775	0.15685978483160987	0.690333799022493	0.4466178056127959	0.16882781894914647	0.9011209146947867	0.81681580264064	0.1826909165594919	1.1203468283012574	1.1827247724826517	0.19527994743424573	0.9378978277130935	1.2805368659873868	0.14218708206000902	0.9913319123520429	1.269021755699671	0.19942605054588636	1.2136732362855165	1.2274900755068048	0.25989639347302007	0.31676025190599727	0.024302550990486303	0.2149749384745348	0.07980245969394281	-0.1369612612643077	0.2207855736633318	0.116589411651094	0.007481955556923104	0.43139437323545193	0.33441282642956194	0.0655614634950609	0.3871780479691011	0.31604185854008043	0.35377032690225724	0.23779006828717547	0.20519252325438042	0.16649212193169102	0.19996533445988227	0.21485764343402378	0.052267187357644365	0.1852606545990479	0.13744205972074586	0.07196733146903847	0.17167434252368308	0.18374531677891368	0.1173556426683885	0.11596844951566304	0.45637886570610664	0.033028320179327345	0.048557444474616976	0.6235683943923086	0.2529561876606421	0.09504196126580765	0.4527354909440242	0.2535360769983859	0.12507234774683543	0.2849367783713902	0.23188798604463468	0.11838852981076388	0.25133572669812815	0.2402738706927891	0.11261164248539168	0.30544700082319026	0.2848578981360891
